<?xml version="1.0" encoding="utf-8"?>
<!-- Generator: Adobe Illustrator 16.0.0, SVG Export Plug-In . SVG Version: 6.00 Build 0)  -->
<!DOCTYPE svg PUBLIC "-//W3C//DTD SVG 1.1//EN" "http://www.w3.org/Graphics/SVG/1.1/DTD/svg11.dtd">
<svg version="1.1" id="Layer_1" xmlns="http://www.w3.org/2000/svg" xmlns:xlink="http://www.w3.org/1999/xlink" x="0px" y="0px"
	 width="109px" height="70px" viewBox="0 0 109 70" enable-background="new 0 0 109 70" xml:space="preserve">
<g>
	<g>
		<path fill="#252157" d="M6.431,49.276h5.101l-2.505-6.612L6.431,49.276z M8.391,41.437H9.77l5.084,12.901h-1.326l-1.578-4.011
			H6.049l-1.561,4.011H3.163L8.391,41.437z"/>
		<g>
			<path fill="#252157" d="M15.907,41.437h1.234v7.984c0,2.982,1.399,4.14,3.795,4.14c2.413,0,3.812-1.157,3.812-4.14v-7.984h1.235
				v8.256c0,2.657-1.434,4.915-5.047,4.915c-3.577,0-5.029-2.258-5.029-4.915V41.437z"/>
			<path fill="#252157" d="M29.05,50.091c-0.055,2.656,1.851,3.47,4.23,3.47c1.36,0,3.431-0.741,3.431-2.62
				c0-1.463-1.452-2.042-2.668-2.331l-2.888-0.704c-1.524-0.38-2.922-1.085-2.922-3.109c0-1.264,0.817-3.63,4.466-3.63
				c2.579,0,4.792,1.354,4.792,4.01h-1.234c-0.092-1.951-1.688-2.963-3.541-2.963c-1.688,0-3.249,0.65-3.249,2.565
				c0,1.211,0.889,1.734,1.959,1.969l3.159,0.778c1.834,0.487,3.359,1.3,3.359,3.397c0,0.886-0.362,3.685-4.956,3.685
				c-3.068,0-5.319-1.373-5.175-4.517H29.05z"/>
		</g>
		<polygon fill="#252157" points="38.507,41.437 48.782,41.437 48.782,42.483 44.262,42.483 44.262,54.338 43.027,54.338 
			43.027,42.483 38.507,42.483 		"/>
		<g>
			<path fill="#252157" d="M51.232,47.562h4.61c1.508,0,2.798-0.939,2.798-2.512c0-1.592-0.926-2.566-2.798-2.566h-4.61V47.562z
				 M49.999,41.437h5.935c2.124,0,3.941,1.03,3.941,3.359c0,1.645-0.854,2.945-2.525,3.289v0.036
				c1.688,0.234,2.179,1.357,2.271,2.908c0.054,0.886,0.054,2.676,0.599,3.309h-1.362c-0.289-0.49-0.289-1.465-0.343-2.007
				c-0.092-1.807-0.273-3.812-2.597-3.722h-4.685v5.729h-1.233V41.437z"/>
		</g>
		<path fill="#252157" d="M63.938,49.276h5.101l-2.503-6.612L63.938,49.276z M65.901,41.437h1.379l5.084,12.901h-1.327l-1.579-4.011
			h-5.9l-1.56,4.011h-1.326L65.901,41.437z"/>
		<polygon fill="#252157" points="73.542,41.437 74.776,41.437 74.776,53.288 82.038,53.288 82.038,54.338 73.542,54.338 		"/>
		<rect x="83.383" y="41.436" fill="#252157" width="1.232" height="12.901"/>
		<path fill="#252157" d="M89.155,49.276h5.101l-2.505-6.612L89.155,49.276z M91.114,41.437h1.379l5.084,12.901h-1.325l-1.578-4.011
			h-5.901l-1.562,4.011h-1.325L91.114,41.437z"/>
		<polygon fill="#252157" points="98.74,41.437 100.119,41.437 107.67,52.35 107.707,52.35 107.707,41.437 108.939,41.437 
			108.939,54.338 107.56,54.338 100.012,43.424 99.972,43.424 99.972,54.338 98.74,54.338 		"/>
	</g>
	<g>
		<path fill="#79BE43" d="M0,7.827v1.755l1.92,1.771c0.98,0.927,1.388,2.211,1.388,4.229v16.038l-0.029,4.621h6.995l0.024-4.621
			V9.901l-0.022-1.016C4.916,13.346,0,7.827,0,7.827z"/>
		<path fill="#79BE43" d="M47.754,9.583c-3.949,0-7.205,2.604-9.339,4.036c-1.228-2.125-3.307-4.036-7.257-4.036
			c-3.681,0-6.456,2.231-9.017,3.824l-0.748-3.824l-9.604,1.487v1.698l1.975,0.267c1.014,0.16,1.387,0.531,1.387,2.549v16.038v4.619
			h6.989v-4.406V19.673c0-1.009,0.054-1.86,0.321-2.603c0.747-2.389,2.828-3.823,5.281-3.823c3.309,0,4.321,2.496,4.321,5.628
			v12.959v4.406h6.991v-4.406V19.673c0-1.009,0.053-1.965,0.266-2.657c0.749-2.441,2.722-3.769,5.016-3.769
			c2.829,0,4.643,1.805,4.643,5.628v12.959l-0.013,4.408h6.996l0.006-4.621V17.867C55.969,12.715,53.249,9.583,47.754,9.583z"/>
		<path fill="#79BE43" d="M100.997,9.583c-3.364,0-5.871,1.699-9.284,3.824l-0.748-3.824l-9.604,1.487v1.698l1.976,0.267
			c1.014,0.16,1.387,0.531,1.387,2.549v16.038l-0.007,4.621h6.994l0.003-4.408v-12.48c0-1.275,0.105-2.284,0.532-3.081
			c0.855-1.646,2.616-3.026,5.07-3.026c2.988,0,4.695,1.752,4.695,5.469v13.118l-0.012,4.408h6.995L109,31.621V17.867
			C109,12.715,106.333,9.583,100.997,9.583z"/>
		<path fill="#79BE43" d="M62.655,18.983c1.121,0,1.709-0.745,2.08-1.912c1.388-4.302,3.257-5.258,5.017-5.258
			c1.708,0,3.574,0.956,3.574,4.408v1.715c1.451-0.776,4.688-2.577,6.475-3.575c-0.672-2.507-2.788-4.778-9.302-4.778
			c-7.149,0-11.898,3.08-11.898,6.372C58.601,18.08,61.482,18.983,62.655,18.983z"/>
		<path fill="#79BE43" d="M80.104,17.124c0-0.46-0.017-0.938-0.065-1.42c-1.781,1.185-5.45,2.903-5.45,2.903
			c-2.509,1.433-6.403,2.548-9.925,3.664c0,0,0.039-0.02,0.102-0.052c-0.458,0.143-0.914,0.286-1.362,0.428
			c-4.27,1.381-5.603,3.612-5.603,6.585c0,4.036,2.773,7.648,8.002,7.648c3.257,0,5.817-1.913,7.632-3.134
			c0.747,1.752,1.602,3.134,3.948,3.134c0.859,0,1.824-0.114,2.743-0.275l-0.021-7.267V17.124z M73.326,28.967
			c-0.053,3.344-2.4,4.248-4.054,4.248c-2.509,0-4.269-1.858-4.269-4.833c0-2.548,0.959-3.717,3.095-4.726
			c1.974-0.956,4.002-1.646,5.228-2.284V28.967z"/>
	</g>
	<path fill="#252157" d="M1.654,4.143C1.654,1.859,3.308,0,5.922,0c2.668,0,4.323,1.859,4.323,4.143
		c-0.054,2.284-1.762,4.143-4.323,4.143C3.308,8.286,1.654,6.427,1.654,4.143"/>
	<g>
		<polygon fill="#252157" points="3.163,58.94 4.2,58.94 4.2,63.645 10.663,63.645 10.663,58.94 11.7,58.94 11.7,69.771 
			10.663,69.771 10.663,64.523 4.2,64.523 4.2,69.771 3.163,69.771 		"/>
		<polygon fill="#252157" points="13.898,58.94 21.412,58.94 21.412,59.82 14.936,59.82 14.936,63.733 21,63.733 21,64.614 
			14.936,64.614 14.936,68.893 21.489,68.893 21.489,69.771 13.898,69.771 		"/>
		<path fill="#252157" d="M24.48,65.522h4.283l-2.104-5.552L24.48,65.522z M26.125,58.94h1.158l4.268,10.831h-1.113l-1.326-3.368
			H24.16l-1.312,3.368h-1.112L26.125,58.94z"/>
		<polygon fill="#252157" points="32.547,58.94 33.584,58.94 33.584,68.893 39.68,68.893 39.68,69.771 32.547,69.771 		"/>
		<polygon fill="#252157" points="38.158,58.94 46.786,58.94 46.786,59.82 42.99,59.82 42.99,69.771 41.954,69.771 41.954,59.82 
			38.158,59.82 		"/>
		<polygon fill="#252157" points="47.811,58.94 48.848,58.94 48.848,63.645 55.311,63.645 55.311,58.94 56.345,58.94 56.345,69.771 
			55.311,69.771 55.311,64.523 48.848,64.523 48.848,69.771 47.811,69.771 		"/>
		<g>
			<path fill="#252157" d="M63.821,64.251h3.566c1.448,0,2.423-0.715,2.423-2.214c0-1.504-0.975-2.217-2.423-2.217h-3.566V64.251z
				 M62.785,58.94h4.831c1.952,0,3.229,1.137,3.229,3.097c0,1.954-1.277,3.093-3.229,3.093h-3.795v4.642h-1.036V58.94z"/>
		</g>
		<polygon fill="#252157" points="72.39,58.94 73.427,58.94 73.427,68.893 79.523,68.893 79.523,69.771 72.39,69.771 		"/>
		<path fill="#252157" d="M82.118,65.522H86.4l-2.102-5.552L82.118,65.522z M83.766,58.94h1.156l4.271,10.831h-1.115l-1.326-3.368
			h-4.953l-1.31,3.368h-1.113L83.766,58.94z"/>
		<polygon fill="#252157" points="90.168,58.94 91.328,58.94 97.67,68.104 97.698,68.104 97.698,58.94 98.735,58.94 98.735,69.771 
			97.578,69.771 91.237,60.609 91.205,60.609 91.205,69.771 90.168,69.771 		"/>
		<path fill="#252157" d="M101.409,66.208c-0.048,2.229,1.553,2.912,3.551,2.912c1.144,0,2.88-0.622,2.88-2.199
			c0-1.229-1.218-1.716-2.241-1.958l-2.421-0.591c-1.282-0.319-2.455-0.91-2.455-2.609c0-1.062,0.687-3.049,3.747-3.049
			c2.166,0,4.023,1.138,4.023,3.367h-1.033c-0.078-1.639-1.421-2.488-2.972-2.488c-1.419,0-2.731,0.546-2.731,2.153
			c0,1.017,0.748,1.455,1.648,1.655l2.652,0.651c1.539,0.409,2.819,1.092,2.819,2.852c0,0.743-0.305,3.096-4.16,3.096
			c-2.579,0-4.468-1.153-4.347-3.792H101.409z"/>
	</g>
</g>
</svg>
