<?xml version="1.0" encoding="utf-8"?>
<!-- Generator: Adobe Illustrator 16.0.0, SVG Export Plug-In . SVG Version: 6.00 Build 0)  -->
<!DOCTYPE svg PUBLIC "-//W3C//DTD SVG 1.1//EN" "http://www.w3.org/Graphics/SVG/1.1/DTD/svg11.dtd">
<svg version="1.1" id="Layer_1" xmlns="http://www.w3.org/2000/svg" xmlns:xlink="http://www.w3.org/1999/xlink" x="0px" y="0px"
	 width="100px" height="65px" viewBox="0 0 100 65" enable-background="new 0 0 100 65" xml:space="preserve">
<g>
	<g>
		<path fill="#FFFFFF" d="M5.9,45.422h4.68l-2.298-6.096L5.9,45.422z M7.699,38.194h1.265l4.665,11.892h-1.216l-1.449-3.695H5.549
			l-1.431,3.695H2.902L7.699,38.194z"/>
		<g>
			<path fill="#FFFFFF" d="M14.593,38.194h1.132v7.36c0,2.747,1.284,3.814,3.481,3.814c2.213,0,3.497-1.067,3.497-3.814v-7.36h1.133
				v7.61c0,2.448-1.315,4.528-4.63,4.528c-3.283,0-4.615-2.08-4.615-4.528v-7.61H14.593z"/>
			<path fill="#FFFFFF" d="M26.65,46.172c-0.05,2.447,1.699,3.198,3.881,3.198c1.248,0,3.146-0.684,3.146-2.416
				c0-1.349-1.331-1.882-2.448-2.147l-2.649-0.648c-1.399-0.352-2.681-1.001-2.681-2.866c0-1.164,0.75-3.347,4.096-3.347
				c2.366,0,4.396,1.25,4.396,3.695h-1.132c-0.084-1.798-1.55-2.729-3.249-2.729c-1.549,0-2.98,0.6-2.98,2.363
				c0,1.116,0.816,1.6,1.798,1.813l2.897,0.719c1.683,0.449,3.083,1.199,3.083,3.132c0,0.816-0.333,3.396-4.547,3.396
				c-2.814,0-4.88-1.266-4.747-4.162H26.65z"/>
		</g>
		<polygon fill="#FFFFFF" points="35.328,38.194 44.754,38.194 44.754,39.159 40.607,39.159 40.607,50.086 39.475,50.086 
			39.475,39.159 35.328,39.159 		"/>
		<g>
			<path fill="#FFFFFF" d="M47.001,43.84h4.229c1.384,0,2.567-0.867,2.567-2.313c0-1.467-0.85-2.366-2.567-2.366h-4.229V43.84z
				 M45.87,38.194h5.446c1.947,0,3.615,0.949,3.615,3.097c0,1.516-0.785,2.715-2.316,3.032v0.032
				c1.548,0.217,1.998,1.25,2.083,2.682c0.049,0.815,0.049,2.466,0.548,3.049h-1.249c-0.267-0.45-0.267-1.351-0.315-1.851
				c-0.084-1.663-0.25-3.511-2.382-3.431h-4.297v5.28H45.87V38.194z"/>
		</g>
		<path fill="#FFFFFF" d="M58.659,45.422h4.679l-2.298-6.096L58.659,45.422z M60.458,38.194h1.267l4.663,11.892H65.17l-1.447-3.695
			H58.31l-1.43,3.695h-1.219L60.458,38.194z"/>
		<polygon fill="#FFFFFF" points="67.47,38.194 68.601,38.194 68.601,49.118 75.264,49.118 75.264,50.086 67.47,50.086 		"/>
		<rect x="76.498" y="38.193" fill="#FFFFFF" width="1.131" height="11.893"/>
		<path fill="#FFFFFF" d="M81.794,45.422h4.677l-2.294-6.096L81.794,45.422z M83.591,38.194h1.266l4.665,11.892h-1.217l-1.448-3.695
			h-5.413l-1.433,3.695h-1.217L83.591,38.194z"/>
		<polygon fill="#FFFFFF" points="90.588,38.194 91.853,38.194 98.779,48.255 98.813,48.255 98.813,38.194 99.942,38.194 
			99.942,50.086 98.678,50.086 91.751,40.026 91.718,40.026 91.718,50.086 90.588,50.086 		"/>
	</g>
	<g>
		<path fill="#FFFFFF" d="M0,7.215v1.618l1.762,1.633c0.9,0.854,1.273,2.039,1.273,3.898v14.783l-0.026,4.26h6.416l0.022-4.26V9.125
			l-0.02-0.936C4.51,12.302,0,7.215,0,7.215z"/>
		<path fill="#FFFFFF" d="M43.81,8.833c-3.624,0-6.609,2.399-8.566,3.721c-1.126-1.958-3.035-3.721-6.658-3.721
			c-3.376,0-5.922,2.057-8.273,3.524l-0.686-3.524l-8.811,1.37v1.565l1.812,0.246c0.929,0.147,1.272,0.49,1.272,2.351v14.783v4.258
			h6.412v-4.062V18.134c0-0.931,0.05-1.715,0.294-2.4c0.685-2.201,2.595-3.523,4.846-3.523c3.036,0,3.964,2.3,3.964,5.187v11.946
			v4.062h6.414v-4.062V18.134c0-0.931,0.05-1.812,0.244-2.45c0.687-2.25,2.498-3.474,4.603-3.474c2.594,0,4.258,1.664,4.258,5.187
			v11.946l-0.012,4.062h6.418l0.004-4.26V16.47C51.348,11.721,48.852,8.833,43.81,8.833z"/>
		<path fill="#FFFFFF" d="M92.656,8.833c-3.085,0-5.385,1.566-8.517,3.524l-0.687-3.524l-8.812,1.37v1.565l1.813,0.246
			c0.931,0.147,1.273,0.49,1.273,2.351v14.783l-0.007,4.26h6.417l0.002-4.062V17.84c0-1.173,0.097-2.104,0.485-2.838
			c0.784-1.518,2.4-2.79,4.652-2.79c2.741,0,4.308,1.614,4.308,5.04v12.093l-0.01,4.062h6.417l0.008-4.26V16.47
			C100,11.721,97.553,8.833,92.656,8.833z"/>
		<path fill="#FFFFFF" d="M57.482,17.497c1.028,0,1.567-0.687,1.906-1.763c1.275-3.965,2.988-4.846,4.604-4.846
			c1.565,0,3.275,0.88,3.275,4.062v1.581c1.334-0.715,4.303-2.375,5.942-3.294c-0.617-2.311-2.559-4.405-8.533-4.405
			c-6.561,0-10.917,2.839-10.917,5.874C53.761,16.666,56.406,17.497,57.482,17.497z"/>
		<path fill="#FFFFFF" d="M73.489,15.785c0-0.424-0.017-0.865-0.062-1.309c-1.634,1.093-4.999,2.676-4.999,2.676
			c-2.301,1.321-5.874,2.35-9.104,3.376c0,0,0.036-0.018,0.091-0.047c-0.417,0.132-0.836,0.264-1.248,0.394
			c-3.916,1.273-5.139,3.33-5.139,6.071c0,3.719,2.544,7.048,7.342,7.048c2.985,0,5.336-1.764,6.999-2.889
			c0.688,1.616,1.472,2.889,3.623,2.889c0.789,0,1.676-0.104,2.518-0.254l-0.021-6.699V15.785L73.489,15.785z M67.271,26.7
			c-0.047,3.083-2.201,3.916-3.718,3.916c-2.304,0-3.916-1.712-3.916-4.454c0-2.35,0.881-3.427,2.838-4.355
			c1.812-0.882,3.673-1.518,4.796-2.105V26.7z"/>
	</g>
	<path fill="#79BE43" d="M1.518,3.819C1.518,1.713,3.035,0,5.434,0c2.447,0,3.965,1.713,3.965,3.819
		C9.351,5.924,7.783,7.638,5.434,7.638C3.035,7.638,1.518,5.924,1.518,3.819"/>
	<g>
		<polygon fill="#FFFFFF" points="2.902,54.329 3.854,54.329 3.854,58.665 9.783,58.665 9.783,54.329 10.733,54.329 10.733,64.312 
			9.783,64.312 9.783,59.474 3.854,59.474 3.854,64.312 2.902,64.312 		"/>
		<polygon fill="#FFFFFF" points="12.75,54.329 19.645,54.329 19.645,55.139 13.702,55.139 13.702,58.748 19.267,58.748 
			19.267,59.558 13.702,59.558 13.702,63.503 19.715,63.503 19.715,64.312 12.75,64.312 		"/>
		<path fill="#FFFFFF" d="M22.459,60.396h3.929l-1.931-5.118L22.459,60.396z M23.968,54.329h1.063l3.916,9.982h-1.021l-1.216-3.104
			h-4.543l-1.203,3.104h-1.021L23.968,54.329z"/>
		<polygon fill="#FFFFFF" points="29.859,54.329 30.811,54.329 30.811,63.503 36.403,63.503 36.403,64.312 29.859,64.312 		"/>
		<polygon fill="#FFFFFF" points="35.008,54.329 42.921,54.329 42.921,55.139 39.439,55.139 39.439,64.312 38.49,64.312 
			38.49,55.139 35.008,55.139 		"/>
		<polygon fill="#FFFFFF" points="43.863,54.329 44.814,54.329 44.814,58.665 50.743,58.665 50.743,54.329 51.692,54.329 
			51.692,64.312 50.743,64.312 50.743,59.474 44.814,59.474 44.814,64.312 43.863,64.312 		"/>
		<g>
			<path fill="#FFFFFF" d="M58.552,59.223h3.271c1.328,0,2.222-0.657,2.222-2.039c0-1.389-0.894-2.045-2.222-2.045h-3.271V59.223z
				 M57.601,54.329h4.434c1.79,0,2.964,1.047,2.964,2.854c0,1.801-1.174,2.85-2.964,2.85h-3.482v4.279h-0.951V54.329z"/>
		</g>
		<polygon fill="#FFFFFF" points="66.411,54.329 67.363,54.329 67.363,63.503 72.956,63.503 72.956,64.312 66.411,64.312 		"/>
		<path fill="#FFFFFF" d="M75.336,60.396h3.931l-1.927-5.118L75.336,60.396z M76.848,54.329h1.062l3.919,9.982h-1.021l-1.221-3.104
			h-4.544l-1.199,3.104h-1.021L76.848,54.329z"/>
		<polygon fill="#FFFFFF" points="82.724,54.329 83.786,54.329 89.604,62.775 89.631,62.775 89.631,54.329 90.582,54.329 
			90.582,64.312 89.521,64.312 83.702,55.868 83.675,55.868 83.675,64.312 82.724,64.312 		"/>
		<path fill="#FFFFFF" d="M93.034,61.027c-0.043,2.055,1.426,2.685,3.258,2.685c1.05,0,2.644-0.572,2.644-2.027
			c0-1.133-1.119-1.58-2.057-1.805l-2.222-0.542c-1.176-0.295-2.251-0.842-2.251-2.406c0-0.979,0.628-2.812,3.438-2.812
			c1.985,0,3.688,1.048,3.688,3.104h-0.947c-0.07-1.512-1.304-2.295-2.727-2.295c-1.302,0-2.504,0.502-2.504,1.984
			c0,0.938,0.685,1.342,1.512,1.526l2.432,0.602c1.412,0.375,2.588,1.006,2.588,2.627c0,0.686-0.279,2.854-3.815,2.854
			c-2.367,0-4.102-1.063-3.988-3.496H93.034L93.034,61.027z"/>
	</g>
</g>
</svg>
